{
    "asset" : {
        "generator" : "Khronos glTF Blender I/O v1.5.17",
        "version" : "2.0"
    },
    "scene" : 0,
    "scenes" : [
        {
            "name" : "Scene",
            "nodes" : [
                0
            ]
        }
    ],
    "nodes" : [
        {
            "mesh" : 0,
            "name" : "sword",
            "rotation" : [
                0.7071068286895752,
                0,
                0,
                0.7071068286895752
            ],
            "translation" : [
                0,
                2.4504778385162354,
                0
            ]
        }
    ],
    "meshes" : [
        {
            "name" : "Plane",
            "primitives" : [
                {
                    "attributes" : {
                        "POSITION" : 0,
                        "NORMAL" : 1
                    },
                    "indices" : 2
                }
            ]
        }
    ],
    "accessors" : [
        {
            "bufferView" : 0,
            "componentType" : 5126,
            "count" : 188,
            "max" : [
                0.4146932363510132,
                0.16365835070610046,
                2.006655693054199
            ],
            "min" : [
                -0.5181767344474792,
                -1.263484872282561e-10,
                -2.4631600379943848
            ],
            "type" : "VEC3"
        },
        {
            "bufferView" : 1,
            "componentType" : 5126,
            "count" : 188,
            "type" : "VEC3"
        },
        {
            "bufferView" : 2,
            "componentType" : 5123,
            "count" : 312,
            "type" : "SCALAR"
        }
    ],
    "bufferViews" : [
        {
            "buffer" : 0,
            "byteLength" : 2256,
            "byteOffset" : 0
        },
        {
            "buffer" : 0,
            "byteLength" : 2256,
            "byteOffset" : 2256
        },
        {
            "buffer" : 0,
            "byteLength" : 624,
            "byteOffset" : 4512
        }
    ],
    "buffers" : [
        {
            "byteLength" : 5136,
            "uri" : "data:application/octet-stream;base64,"
        }
    ]
}
