<svg xmlns="http://www.w3.org/2000/svg" width="1920" height="1920"><script/><g fill-rule="evenodd"><path fill="none" stroke="red" stroke-width="10" d="M1195.34 262.603c291 98.178 500.54 373.36 500.54 697.474 0 406.453-329.52 735.943-736 735.943-406.483 0-736.001-329.49-736.001-735.943 0-324.101 209.524-599.27 500.524-697.468"/><path fill="none" stroke="#ffd200" stroke-width="10" d="M1187.34 286.293c281.12 94.842 483.54 360.678 483.54 673.784 0 392.643-318.33 710.943-711 710.943-392.676 0-711.001-318.3-711.001-710.943 0-313.106 202.422-578.937 483.55-673.788"/><path fill="none" stroke="#00f" stroke-width="10" d="M1179.33 309.985c271.24 91.514 466.55 347.998 466.55 650.092 0 378.833-307.14 685.943-686 685.943-378.867 0-685.997-307.11-685.997-685.943 0-302.069 195.272-558.534 466.48-650.069"/><path fill="#ffd200" stroke="#000" stroke-linejoin="round" stroke-width="3.333" d="M891.959 527.461c2.832 5.03 4.874 8.235 7.833 13.01-58.873 36.494-142.18 84.732-201.053 121.226-3.028-4.616-5.958-8.977-8.72-13.84 59.101-36.193 142.838-84.204 201.94-120.396ZM886.285 487.093H779.691l.094 16h106.5ZM922.885 555.763l-54.9 91.369 13.764 8.16 54.851-91.288ZM1027.86 527.461c-2.83 5.03-4.87 8.235-7.83 13.01 58.87 36.494 142.18 84.732 201.05 121.226 3.03-4.616 5.96-8.977 8.72-13.84-59.1-36.193-142.84-84.204-201.94-120.396Z"/><path fill="#ffd200" stroke="#000" stroke-width="3.333" d="M959.929 436.524c31.571 0 57.161 25.596 57.161 57.169 0 31.575-25.59 57.171-57.161 57.171-31.604 0-57.196-25.596-57.196-57.171 0-31.573 25.626-57.169 57.196-57.169Z"/><path fill="#ffd200" stroke="#000" stroke-linejoin="round" stroke-width="3.333" d="M1033.54 487.093h106.59l-.09 16h-106.5ZM996.94 555.763l54.9 91.369-13.77 8.16c-18.28-30.429-36.57-60.859-54.85-91.288Z"/><path fill="#fff" stroke="#000" stroke-linejoin="round" stroke-width="3.333" d="m803.525 769.857 65.16-70.026 24.092 24.957 67.103-68.931 56.34 60.336 14.84-18.358 66.29 72.022Z"/><path fill="#ffd200" stroke="#000" stroke-linejoin="round" stroke-width="3.333" d="m1097.35 1336.81-62-74.95-20.66 30-55.141-69.05-60.197 65.05-21.333-28-74.492 76.95Z"/><path stroke="#000" stroke-linejoin="round" stroke-width="3.333" d="m581.699 1006.36 103.32-108.503 53.5 56 22.5-23.5 67 76.003Z"/><path fill="#1313c4" stroke="#000" stroke-linejoin="round" stroke-width="3.333" d="m1292.46 1006.36-90.28-93.003-58.98 61.5-29.18-31.5-60.32 63.003Z"/><path fill="#ffc02b" stroke="#000" stroke-linejoin="round" stroke-width="3.333" d="M637.643 1270.99c3.57-3.18 6.266-10.57 10.164-11.84 7.093-2.32 7.464 10.08 24.274 8.78 7.439-.64.968-14.67-3.692-16.66-17.624-7.5-12.629-30.19-23.093-19.82-15.649 13.52-25.361 13.4-34.184 11.22Z"/><path fill="#0d4d08" stroke="#000" stroke-linejoin="round" stroke-width="3.333" d="M566.539 1353.86c-79.455-35.01-45.944-112.87-91.2-173.6-8.852-12.45 16.117-21.36 22.4-12.8 43.36 52.25 75.84 111.75 100 176.8Z"/><path fill="#0d4d08" stroke="#000" stroke-linejoin="round" stroke-width="3.333" d="M475.421 1349.92c25.004-14.48 55.222-6.02 84.666-.96-29.934-50.57-108.516-57.17-84.666.96Z"/><path fill="#068606" stroke="#000" stroke-linejoin="round" stroke-width="3.333" d="M698.739 1473.86c-125.98-145.4-164.354-280.6-158-439l-6.2-17.4-7.2 15.6c1.016 168.89 19.277 313.77 171.017 452.98Z"/><path fill="#068606" stroke="#000" stroke-linejoin="round" stroke-width="3.333" d="M462.405 1229.86c-1.825-4.9-3.026-6.36-4.852-11.26 15.55-30.93 47.107-28.06 62.075-23.07 21.137 7.04 28.177 40.78 48.111 82.33-39.675-5.41-56.918-59.31-105.334-48ZM746.033 1506.91c-18.029 6.99-38.713 6.18-60.134-.73-3.506 2.49-8.36 3.64-14.426 3.57-18.278.34-30.789-4.03-36.934-11.09 8.666 1.71 17.333 1.69 26-1.4-46.534-14.71-95.439-2.37-114.235-44.91 26.512 9.76 43.024 9.81 64.103 9.79 10.624-.02 22.41-.05 37.222 1.14 16.514 1.32 33.452 7.67 54.436 18.57 12.859 6.68 27.238 15.06 43.968 25.06ZM838.405 1511.86c3.807 13.55.531 22.12-10.666 25.1 77.114 18.1 112.081 45.63 170.001 72.23 45.69 20.99 50.47-24.95 15.33-41.33-37.621-17.54-63.501-21.79-71.346-24.68-34.429-10.43-80.356-24.36-103.319-31.32Z"/><path fill="#068606" stroke="#000" stroke-linejoin="round" stroke-width="3.333" d="M594.8 1166.87c-29.035 40.18-59.935 45.15-30.288 127.49 4.535 12.48 12.329 17.47 15.619 16.34 3.318-1.13 4.278-8.49 1.644-20.64-9.371-68.38 49.398-31.41 17.602-122.45-1.525-.25-3.052-.49-4.577-.74Z"/><path fill="none" stroke="#000" stroke-linecap="round" stroke-linejoin="round" stroke-width="3.333" d="M755.513 1502.35c17.702 24.1 43.647 30.82 65.624 28.3"/><path fill="#068606" stroke="#000" stroke-linejoin="round" stroke-width="3.333" d="M531.661 1342.61c19.386-14.32 49.07-9.32 66.547 3.63 23.703 17.68 25.395 33.5 35.68 54.9-64.559-3.65-60.387-35.53-101.569-48.94-5.38-2.11-5.316-5.37-.658-9.59ZM825.239 1426.36c-25.17-24.55-49.516-43.14-69.336-28.92-19.891 15.13-27.016 31.13-26.396 47.41-1.775-97.35 31.709-96.73 46.732-96.72 16.782 0 51.486 14.57 49 78.23Z"/><path fill="#068606" stroke="#000" stroke-linejoin="round" stroke-width="3.333" d="M597.847 1340.12c-23.206-58.56-25.708-98.59 17.492-115.26 7.653-2.76 10.953-.07 6.9 6.5-8.228 13.92-1.111 21.92 16 34.5 15.212 25.05 29.454 56.29 38 84l30.3 135.2c-63.011-51-95.654-112.04-108.692-144.94Z"/><path fill="none" stroke="#000" stroke-linejoin="round" stroke-width="3.333" d="M702.065 1481.85c12.859 6.68 27.238 15.06 43.968 25.06"/><path fill="#0d4d08" stroke="#000" stroke-linejoin="round" stroke-width="3.333" d="M729.507 1444.85c-.62-16.28 6.505-32.28 26.396-47.41.488 5.81 2.058 12.24 4.936 17.62 3.576 6.68 10.021 16.24 16.52 22.48 6.489 6.22 15.722 9.88 22.47 14.93 6.319 4.72 13.783 9.04 18.019 15.35 4.236 6.3 4.056 15.34 7.395 22.49 3.426 7.34 12.172 17.89 13.162 21.55 3.807 13.55.531 22.12-10.666 25.1-4.402 1.27-12.16 10.44-23.771 13.87-12.853 3.81-30.692 5.34-44.897 1.02-21.802-6.62-25.823 2.52-49.92-10.72-9.799-5.38-12.382-20.49-37.678-31.38 6.998-.49 10.92-1.08 14.426-3.57 21.421 6.91 42.105 7.72 60.134.73a67.37 67.37 0 0 0 9.48-4.56c-13.918-18.94-25.28-38.42-26.006-57.5Z"/><path fill="#068606" stroke="#000" stroke-linejoin="round" stroke-width="3.333" d="M746.033 1506.91c-16.73-10-31.109-18.38-43.968-25.06-41.246-32.62-44.294-90.48-39.66-122.66 3.571-24.79 32.6-95.67 66-46-32.14 9.86-30.838 43.72-28.289 64 2.919 23.22 10.267 48.33 29.391 67.66.726 19.08 12.088 38.56 26.006 57.5a67.37 67.37 0 0 1-9.48 4.56Z"/><path fill="#0d4d08" stroke="#000" stroke-linejoin="round" stroke-width="3.333" d="M569.563 1426.04c.402-3.05 2.726-6.35 6.99-8.31a18.863 18.863 0 0 1 4.299-1.36c22.271-4.07 43.331 6.19 50.691 14.59 19.498 22.25 39.857 34.22 70.522 50.89-20.984-10.9-37.922-17.25-54.436-18.57-14.812-1.19-26.598-1.16-37.222-1.14-19.018-6.57-20.658-19.39-38.182-30.11-2.092-1.31-2.984-3.57-2.662-5.99Z"/><path fill="#ffc02b" stroke="#000" stroke-linejoin="round" stroke-width="3.333" d="M576.553 1417.73c-32.072-53.26-49.025-50.42-62.936-37.09-6.792 6.51-9.532 12.45-8.484 17.8 2.416 12.35 25.314 14.33 64.43 27.6 1.48-3.34 3.91-6.04 6.99-8.31"/><path fill="#068606" stroke="#000" stroke-linejoin="round" stroke-width="3.333" d="M576.217 1042.76c-39.153 24.42-61.613 53.06-42.418 118.44 4.405 14.49 40.64-24.96 41.657-42.22 1.435-24.37-1.307-48.85 7.283-68.62 3.398-7.82.729-11.81-6.522-7.6Z"/><path fill="#068606" stroke="#000" stroke-linejoin="round" stroke-width="3.333" d="M501.292 1060.41c33.525 28.55 48.068 65.85 41.427 113.37-4.334.36-73.416-42.35-41.427-113.37Z"/><path fill="#ffc02b" stroke="#000" stroke-linejoin="round" stroke-width="3.333" d="M459.128 1281.87c16.889-17.95-2.677-50.02 3.277-52.01-1.825-4.9-3.026-6.36-4.852-11.26-14.804 12.31-16.361 32.21 1.575 63.27ZM619.339 1093.54c15.496 51.93-13.084 54.84-19.962 74.07-1.525-.25-3.052-.49-4.577-.74-7.559-31.97 2.656-55.44 24.539-73.33ZM582.739 1050.36c10.053 2.03 21.678 17.19 26.014 14.99 16.314-8.27-20.565-79.693-32.536-22.59-1.173 5.41 1.915 6.65 6.522 7.6ZM479.575 1008.71c17.425 31.75-19.766 23.3 26.198 68.37 16.779-33.9 7.41-56.85-12.46-75.4-9.218-7.892-18.968-2.643-13.738 7.03Z"/><path fill="none" stroke="#000" stroke-linecap="round" stroke-linejoin="round" stroke-width="3.333" d="M549.673 921.253c-8.128 12.951-15.482 28.574-15.557 52.035"/><path fill="#ffc02b" stroke="#000" stroke-linejoin="round" stroke-width="3.333" d="M527.339 1033.06c.85-16.08-9.518-26.47-12.106-41.403-2.104-12.129-9.628-22.586-18.894-32-6.119-5.82 1.713-12.464 7.309-8.854 13.161 9.838 22.22 21.605 26.731 35.534.044-25.466-15.812-23.406-32.8-53.12-2.804-5.556.496-9.848 6.225-6.497 13.585 9.064 22.643 20.687 26.415 35.297-4.566-20.042-17.727-36.757-35.52-51.68-6.566-5.733-1.862-9.84 6.08-8.32 21.106 5.518 33.121 18.975 30.76 45.24 3.136-25.945-2.868-46.988-21.6-61.2-6.594-4.7 4.36-14.9 11.6-9 12.418 11.427 17.848 27.107 18 46 4.073-18.986 3.008-37.974-1.986-56.961 15.768 8.023 17.604 28.368 12.143 55.172 7.992-12.785 16.76-22.959 20.045-35.485 15.363 13.414-2.125 15.914-9.062 38.75-3.611 11.884-8.762 26.879-14.375 46.244 17.869-55.869 60.023-69.336 54.768-22.92-33.267-34.113-60.537 71.833-60.323 87.023.066 17.04-14.1 16.04-13.41-1.82ZM1282.11 1270.99c-3.57-3.18-6.27-10.57-10.16-11.84-7.1-2.32-7.47 10.08-24.28 8.78-7.44-.64-.97-14.67 3.69-16.66 17.63-7.5 12.63-30.19 23.1-19.82 15.65 13.52 25.36 13.4 34.18 11.22Z"/><path fill="#0d4d08" stroke="#000" stroke-linejoin="round" stroke-width="3.333" d="M1353.21 1353.86c79.46-35.01 45.95-112.87 91.2-173.6 8.86-12.45-16.11-21.36-22.4-12.8-43.36 52.25-75.84 111.75-100 176.8Z"/><path fill="#0d4d08" stroke="#000" stroke-linejoin="round" stroke-width="3.333" d="M1444.33 1349.92c-25-14.48-55.22-6.02-84.66-.96 29.93-50.57 108.51-57.17 84.66.96Z"/><path fill="#068606" stroke="#000" stroke-linejoin="round" stroke-width="3.333" d="M1457.35 1229.86c1.82-4.9 3.02-6.36 4.85-11.26-15.55-30.93-47.11-28.06-62.08-23.07-21.13 7.04-28.17 40.78-48.11 82.33 39.68-5.41 56.92-59.31 105.34-48Z"/><path fill="#068606" stroke="#000" stroke-linejoin="round" stroke-width="3.333" d="M1221.01 1473.86c125.98-145.4 164.36-280.6 158-439l6.2-17.4 7.2 15.6c-1.01 168.89-19.27 313.77-171.01 452.98ZM1081.35 1511.86c-3.81 13.55-.53 22.12 10.66 25.1-77.11 18.1-112.081 45.63-169.997 72.23-45.692 20.99-50.474-24.95-15.333-41.33 37.623-17.54 63.509-21.79 71.349-24.68 34.431-10.43 80.351-24.36 103.321-31.32Z"/><path fill="#068606" stroke="#000" stroke-linejoin="round" stroke-width="3.333" d="M1324.95 1166.87c29.04 40.18 59.94 45.15 30.29 127.49-4.53 12.48-12.33 17.47-15.62 16.34-3.32-1.13-4.28-8.49-1.64-20.64 9.37-68.38-49.4-31.41-17.6-122.45 1.52-.25 3.05-.49 4.57-.74Z"/><path fill="none" stroke="#000" stroke-linecap="round" stroke-linejoin="round" stroke-width="3.333" d="M1164.24 1502.35c-17.7 24.1-43.65 30.82-65.62 28.3"/><path fill="#068606" stroke="#000" stroke-linejoin="round" stroke-width="3.333" d="M1388.09 1342.61c-19.38-14.32-49.07-9.32-66.55 3.63-23.7 17.68-25.39 33.5-35.68 54.9 64.56-3.65 60.39-35.53 101.57-48.94 5.38-2.11 5.32-5.37.66-9.59ZM1094.51 1426.36c25.17-24.55 49.52-43.14 69.34-28.92 19.89 15.13 27.02 31.13 26.4 47.41 1.77-97.35-31.71-96.73-46.74-96.72-16.78 0-51.48 14.57-49 78.23Z"/><path fill="#068606" stroke="#000" stroke-linejoin="round" stroke-width="3.333" d="M1321.91 1340.12c23.2-58.56 25.7-98.59-17.5-115.26-7.65-2.76-10.95-.07-6.9 6.5 8.23 13.92 1.11 21.92-16 34.5-15.21 25.05-29.45 56.29-38 84l-30.3 135.2c63.01-51 95.66-112.04 108.7-144.94Z"/><path fill="none" stroke="#000" stroke-linejoin="round" stroke-width="3.333" d="M1217.69 1481.85c-12.86 6.68-27.24 15.06-43.97 25.06"/><path fill="#0d4d08" stroke="#000" stroke-linejoin="round" stroke-width="3.333" d="M1190.25 1444.85c.62-16.28-6.51-32.28-26.4-47.41-.49 5.81-2.06 12.24-4.94 17.62-3.57 6.68-10.02 16.24-16.52 22.48-6.49 6.22-15.72 9.88-22.47 14.93-6.32 4.72-13.78 9.04-18.02 15.35-4.23 6.3-4.05 15.34-7.39 22.49-3.43 7.34-12.17 17.89-13.16 21.55-3.81 13.55-.53 22.12 10.66 25.1 4.41 1.27 12.16 10.44 23.77 13.87 12.86 3.81 30.7 5.34 44.9 1.02 21.8-6.62 25.82 2.52 49.92-10.72 9.8-5.38 12.38-20.49 37.68-31.38-7-.49-10.92-1.08-14.43-3.57-21.42 6.91-42.1 7.72-60.13.73a67.583 67.583 0 0 1-9.48-4.56c13.92-18.94 25.28-38.42 26.01-57.5Z"/><path fill="#068606" stroke="#000" stroke-linejoin="round" stroke-width="3.333" d="M1173.72 1506.91c16.73-10 31.11-18.38 43.97-25.06 41.24-32.62 44.29-90.48 39.66-122.66-3.57-24.79-32.6-95.67-66-46 32.14 9.86 30.84 43.72 28.29 64-2.92 23.22-10.27 48.33-29.39 67.66-.73 19.08-12.09 38.56-26.01 57.5 3.07 1.78 6.23 3.3 9.48 4.56ZM1173.72 1506.91c18.03 6.99 38.71 6.18 60.13-.73 3.51 2.49 8.36 3.64 14.43 3.57 18.28.34 30.79-4.03 36.93-11.09-8.66 1.71-17.33 1.69-26-1.4 46.54-14.71 95.44-2.37 114.24-44.91-26.51 9.76-43.03 9.81-64.1 9.79-10.63-.02-22.41-.05-37.23 1.14-16.51 1.32-33.45 7.67-54.43 18.57-12.86 6.68-27.24 15.06-43.97 25.06Z"/><path fill="#0d4d08" stroke="#000" stroke-linejoin="round" stroke-width="3.333" d="M1350.19 1426.04c-.4-3.05-2.73-6.35-6.99-8.31-1.26-.58-2.7-1.05-4.3-1.36-22.27-4.07-43.33 6.19-50.69 14.59-19.5 22.25-39.86 34.22-70.52 50.89 20.98-10.9 37.92-17.25 54.43-18.57 14.82-1.19 26.6-1.16 37.23-1.14 19.01-6.57 20.65-19.39 38.18-30.11 2.09-1.31 2.98-3.57 2.66-5.99Z"/><path fill="#ffc02b" stroke="#000" stroke-linejoin="round" stroke-width="3.333" d="M1343.2 1417.73c32.07-53.26 49.12-50.52 62.94-37.09 7.26 7.07 9.89 13.43 8.2 19.09-3.52 11.83-27.1 12.8-64.15 26.31-1.48-3.34-3.91-6.04-6.99-8.31Z"/><path fill="#068606" stroke="#000" stroke-linejoin="round" stroke-width="3.333" d="M1343.54 1042.76c39.15 24.42 61.61 53.06 42.41 118.44-4.4 14.49-40.64-24.96-41.65-42.22-1.44-24.37 1.3-48.85-7.29-68.62-3.39-7.82-.73-11.81 6.53-7.6Z"/><path fill="#068606" stroke="#000" stroke-linejoin="round" stroke-width="3.333" d="M1418.46 1060.41c-33.52 28.55-48.07 65.85-41.43 113.37 4.34.36 73.42-42.35 41.43-113.37Z"/><path fill="#ffc02b" stroke="#000" stroke-linejoin="round" stroke-width="3.333" d="M1460.62 1281.87c-16.88-17.95 2.68-50.02-3.27-52.01 1.82-4.9 3.02-6.36 4.85-11.26 14.8 12.31 16.36 32.21-1.58 63.27ZM1300.41 1093.54c-15.49 51.93 13.09 54.84 19.97 74.07 1.52-.25 3.05-.49 4.57-.74 7.56-31.97-2.65-55.44-24.54-73.33ZM1337.01 1050.36c-10.05 2.03-21.67 17.19-26.01 14.99-16.31-8.27 20.56-79.693 32.54-22.59 1.17 5.41-1.92 6.65-6.53 7.6ZM1440.18 1008.71c-17.43 31.75 19.76 23.3-26.2 68.37-16.78-33.9-7.41-56.85 12.46-75.4 9.22-7.892 18.97-2.643 13.74 7.03Z"/><path fill="none" stroke="#000" stroke-linecap="round" stroke-linejoin="round" stroke-width="3.333" d="M1370.08 921.253c8.13 12.951 15.48 28.574 15.56 52.035"/><path fill="#ffc02b" stroke="#000" stroke-linejoin="round" stroke-width="3.333" d="M1392.41 1033.06c-.85-16.08 9.52-26.47 12.11-41.403 2.1-12.129 9.63-22.586 18.89-32 6.12-5.82-1.71-12.464-7.31-8.854-13.16 9.838-22.22 21.605-26.73 35.534-.04-25.466 15.82-23.406 32.8-53.12 2.81-5.556-.49-9.848-6.22-6.497-13.59 9.064-22.64 20.687-26.42 35.297 4.57-20.042 17.73-36.757 35.52-51.68 6.57-5.733 1.87-9.84-6.08-8.32-21.1 5.518-33.12 18.975-30.76 45.24-3.13-25.945 2.87-46.988 21.6-61.2 6.6-4.7-4.36-14.9-11.6-9-12.41 11.427-17.84 27.107-18 46-4.07-18.986-3-37.974 1.99-56.961-15.77 8.023-17.6 28.368-12.14 55.172-8-12.785-16.76-22.959-20.05-35.485-15.36 13.414 2.13 15.914 9.06 38.75 3.61 11.884 8.77 26.879 14.38 46.244-17.87-55.869-60.02-69.336-54.77-22.92 33.27-34.113 60.54 71.833 60.32 87.023-.06 17.04 14.1 16.04 13.41-1.82Z"/><path fill="#fff" stroke="#000" stroke-linecap="round" stroke-linejoin="round" stroke-width="2" d="M940.019 1159.38c7.17-.92 10.35-2.84 18.941-3.1 4.449 6.94 4 11.36 4.009 16.14.011 6.41-.02 11.08.04 20.32-.049 2.26 7.011 2.56 7.031 0 .04-18.71-2.731-36.66 11.12-36.52 1.04 3.97 15.86 4.57 6.629 12.13 5.551 5.99 3.4 12.85 9.291 18.52 2.4 1.66 4.8 1.75 7.21 0 .94-2.6 2.24-4.87 4.25-6.5 3.8-16.43-1.89-29.41-12.751-40.5-5.7-26.14-32.52-31.48-71.55-29.56-7.894.72-9.516 13.36-9.524 19.65-.01 7.43 1.902 14.41 9.104 21.5a78.386 78.386 0 0 1-3.5 8.64c-1.331 2.78-4.662 5.01-4.66 8.36-.002 2.36 4.678 7.31 6.832 11.15 2.609 4.65 5.045 9.47 7.328 14.45 1.294 2.86 8.73 3.3 6.6.2-5.894-8.79-9.904-17.51-9.894-25.57.003-2.09.936-3.81 2.315-5.43 1.117-.95 2.183-2.25 3.439-3.4 3.102-.02 5.598-.21 7.74-.48Z"/><path fill="none" stroke="#000" stroke-linecap="round" stroke-linejoin="round" stroke-width="2" d="M958.969 1156.3c-.989-1.54-2.22-3.21-3.749-5.04"/><path stroke="#000" stroke-linecap="round" stroke-linejoin="round" stroke-width="2" d="M970.04 1190.34c.04-18.71-2.171-34.18 11.12-34.12-.171 12.84-4.58 12.67-4.62 34 .009 3.24-6.511 3.09-6.5.12Z"/><path fill="none" stroke="#000" stroke-linecap="round" stroke-linejoin="round" stroke-width="2" d="M932.268 1159.87c3.773-3.46 8.005-7.36 7.951-14.41"/><path stroke="#000" stroke-linecap="round" stroke-linejoin="round" stroke-width="2" d="M949.94 1192.82c-2.671-10.16-4.081-16.28-6.263-20.25-3.109-5.67-6.246-7.33-3.658-13.19-2.142.27-4.638.46-7.74.48-1.256 1.15-2.46 2.25-3.439 3.4 4.985 9.01 12.996 14.31 14.299 27.96.333 3.32 7.41 4.06 6.801 1.6Z"/><path stroke="#000" stroke-linecap="round" stroke-linejoin="round" stroke-width=".133" d="M1009.26 1164.66c-.22-1.4-.51-2.73-.84-4.02-3.23-.69-6.3-.16-9.26 1.1 5.19.17 6.57 3.55 10.1 2.92Z"/><path fill="#b7b7b7" stroke="#000" stroke-linejoin="round" stroke-width="2" d="M886.819 1018.56c8.452 5.09 9.948 11.85 4 20.4.837 3.53 2.862 6.4 6.1 8.6 4.406 2.37 9.56 2.56 12.8 0 5.948-6.43 8.794-12.99 5.2-20 4.038 7.82 7.505-2.96 11-12.8-.852 13.21 2.924 26.6 2.02 40.3-.206 2.69 5.518 2.61 6.08 0l2.1-9.33c.733-3.25 1.466-6.51 2.2-9.77a64.216 64.216 0 0 0 3.84-3.46c2.025.08 4.125.12 6.19.13 1.32.01 2.64-.03 3.951-.03 9.349.02 18.48-1.1 27.86-2.9 2.629-.5 5.289-1.08 7.979-1.72 1.021 3.46 2.5 6.51 7.781 8.08 2.62 5.65 1.369 11.61 1.6 17.8.08 2.29 5.07 2.15 5.3 0 1.42-16.27 8.68-27.1 13.8-38.91 2.93-6.78 5.17-13.87 5.2-22.493.02-6.829-10.7-16.64-20.55-20.42-8.161-3.133-18.281-2.952-30.03 3.62-2.54 1.42-5.82 1.691-8.42 0-13.26-10.205-32.739-5.66-44.801 1.4-8.308 4.8-4.31 20.1-15 33.603-5.098 2.64-10.568 3.42-16.2 3.4-3.559-.01-3.632 2.4 0 4.5Z"/><path fill="none" stroke="#000" stroke-linecap="round" stroke-width="2" d="M982.72 1015.56c3.849 4.1 4.289 8.58 5.419 12.41"/><path fill="#1c1c1c" stroke="#000" stroke-linejoin="round" stroke-width="1.333" d="M1024.22 1030.26c-2.18-6.14-.15-10.49-.43-15.73a322.35 322.35 0 0 0-1.97-22.073c-.03 8.623-2.27 15.713-5.2 22.493-.04 5.45.38 7.98 2.2 15.51.69 3.06 5.39 3.43 5.4-.2ZM980.16 1029.7c2.629-.5 5.289-1.08 7.979-1.72 1.021 3.46 2.601 6.41 7.781 8.08l-.631 14.41c-.269 3.16-7.309 5.64-8.629 3.88-4.771-6.45-6.071-15.19-6.5-24.65Z"/><path fill="none" stroke="#000" stroke-linecap="round" stroke-linejoin="round" stroke-width="2" d="M942.151 1032.49c4.758-4.7 8.029-9.61 10.569-14.63"/><path fill="#1c1c1c" stroke="#000" stroke-linejoin="round" stroke-width="1.333" d="M943.019 1051.66c.422-7.16 2.244-13.47 5.33-19.03-2.065-.01-4.165-.05-6.19-.13a64.216 64.216 0 0 1-3.84 3.46l-2.2 9.77c-1.97 8.8 6.288 12.84 6.9 5.93Z"/><path fill="#ce572f" stroke="#000" stroke-linejoin="round" stroke-width="1.333" d="M965.94 872.728c2.16-.113 4.34-.311 6.58-.571a29.367 29.367 0 0 0 4.849 6.264 33.009 33.009 0 0 0 4.451 3.636l-.051 31.958 9.771 1.8c-4.591-11.594-3.131-24.53-1.52-33.471 2.649-14.748 8.089-20.549 9-31.749-.76 9.652.619 18.556 11 22.249-6.38 4.637-5.71 14.863-1.84 17.967 7.91 6.349 9.8 19.252 16.45 19.172 9.53.064 1.35-23.047 5.11-30.351-2.53-3.297-1.97-6.051 1.3-8.328-10.16-8.261-13.93-15.824-13.94-29.156 0-5.708-20.131-22.981-27.88-26.599-7.571-2.862-14.38-2.592-20.591 0-5.38 2.324-30.632-4.029-35.292-5.626-11.508-3.176-27.945 2.902-35.422 17.042-3.668 6.938-5.18 15.815-2.896 26.492.369 1.439 1.932 3.416 4.172 6.215 1.63 2.036 3.557 4.427 5.457 7.165 4.439 6.398 8.735 14.698 8.771 24.82.034 9.503-.75 13.526-2 24.6 4.702.526 8.394.727 13.2 1.2 1.184.004.949-3.112 0-4.56-4.655-8.249-5.092-20.554 2.4-30.24 3.9-5.04 7.184-10.336 9.366-15.597 10.382 4.956 19.664 6.187 29.555 5.668Z"/><path fill="none" stroke="#000" stroke-linecap="round" stroke-linejoin="round" stroke-width="2" d="M936.619 843.657c3.904 6.962 3.196 15.139-.234 23.403M972.52 872.116c-4.12-7.212-5.151-16.152-4.1-26.259"/><path fill="#451111" stroke="#000" stroke-linejoin="round" stroke-width="1.333" d="M897.932 826.931c-3.668 6.937-5.197 15.849-2.913 26.526.369 1.439 2.01 3.515 4.172 6.215-6.378 5.993-.374 14.401-.326 22.143.071 11.32-7.682 23.229-11.646 23.242-13.24.015 1.498-9.558 1.8-50.58-.299-11.237 4.077-19.412 8.913-27.546Z"/><path fill="#8a2710" stroke="#000" stroke-linejoin="round" stroke-width="1.333" d="m904.019 915.297 7.4.96c1.25-11.074 2.034-15.097 2-24.6-.036-10.122-4.332-18.422-8.771-24.82 6.779 17.498 3.732 33.106-.629 48.46ZM965.94 872.728c2.16-.113 4.34-.311 6.58-.571a29.367 29.367 0 0 0 4.849 6.264l-2.469 37.836-8.8-1.44c3.44-14.029 4.4-28.06-.16-42.089Z"/><path stroke="#000" stroke-linejoin="round" stroke-width=".133" d="M924.129 1748.72c.338 10.95 8.215 17.13 21.223 21.39 6.788 1.31 6.948 7.5.997 10.07-14.328 1.37-25.697 1.99-22.196 36.29 1.748 17.84 19.096 70.48 35.456 103.61 16.75-32.97 34.611-85.43 36.53-103.25 3.841-34.27-7.52-35-21.839-36.5-5.92-2.63-5.711-8.82 1.1-10.06 13.049-4.15 21.08-10.31 21.529-21.26-24.349 1.13-48.609.99-72.8-.29ZM824.756 1737.87c-1.049 10.91 5.985 18.03 18.349 23.9 6.572 2.16 5.94 8.32-.284 10.12-14.386-.45-25.741-1.28-26.602 33.19-.522 17.92 10.036 72.33 22.08 107.26 20.778-30.59 45.125-80.37 49.285-97.81 8.136-33.51-3.043-35.66-17.052-38.97-5.54-3.35-4.549-9.46 2.359-9.84 13.466-2.46 22.217-7.56 24.042-18.36-24.29-1.96-48.342-5.16-72.177-9.49ZM1032.86 1746.16c1.84 10.8 10.49 15.83 23.96 18.27 6.91.37 7.91 6.48 2.38 9.84-14.01 3.32-25.18 5.5-17 38.99 4.18 17.44 28.6 67.19 49.36 97.75 12.06-34.95 22.54-89.37 21.99-107.29-.91-34.47-12.26-33.63-26.65-33.15-6.22-1.79-6.86-7.95-.29-10.12 12.35-5.89 19.46-13.1 18.4-24.01-23.96 4.46-48.01 7.66-72.15 9.72ZM1135.65 1729.74c3.24 10.46 12.48 14.31 26.15 14.96 6.9-.55 8.7 5.37 3.65 9.44-13.45 5.13-24.24 8.76-11.72 40.89 6.44 16.73 37.19 62.83 61.79 90.4 7.36-36.23 10.59-91.56 7.69-109.25-5.44-34.05-16.58-31.72-30.78-29.36-6.41-.96-7.85-6.97-1.63-9.99 11.48-7.47 17.58-15.55 15.09-26.22-23.17 7.57-46.59 13.91-70.24 19.13ZM1240.8 1697.89c4.66 9.92 14.34 12.44 27.97 11.18 6.76-1.5 9.36 4.12 4.93 8.85-12.61 6.95-22.79 12.04-5.93 42.12 8.7 15.67 45.55 57.06 73.74 80.95 2.25-36.9-2.23-92.14-7.56-109.26-10.11-32.97-20.82-29.11-34.55-24.8-6.48-.06-8.75-5.82-3-9.67 10.32-8.99 15.25-17.84 11.3-28.06-21.89 10.71-44.2 20.24-66.9 28.69ZM1332.63 1656.03c5.89 9.24 15.82 10.51 29.18 7.52 6.51-2.35 9.8 2.89 6.01 8.15-11.61 8.5-21.07 14.85-.51 42.53 10.63 14.44 52.46 50.79 83.47 70.88-2.47-36.89-13.97-91.1-21.43-107.4-14.24-31.41-24.37-26.22-37.44-20.19-6.43.77-9.42-4.66-4.21-9.21 9.1-10.23 12.85-19.64 7.63-29.27-20.34 13.42-41.26 25.71-62.7 36.99ZM1420.17 1601.51c7.04 8.39 17.05 8.36 29.91 3.66 6.14-3.18 10.09 1.59 7.02 7.29-10.41 9.94-18.95 17.47 5.04 42.23 12.42 12.93 58.63 43.52 92 59.4-7.27-36.25-25.73-88.5-35.26-103.69-18.2-29.29-27.57-22.82-39.75-15.14-6.27 1.6-9.94-3.39-5.37-8.58 7.68-11.33 10.18-21.15 3.75-30.02-18.42 15.96-37.56 30.88-57.34 44.85ZM1492.57 1542.79c7.99 7.5 17.92 6.29 30.13.1 5.73-3.88 10.22.39 7.83 6.41-9.15 11.11-16.75 19.58 9.99 41.35 13.86 11.38 63.36 36.3 98.36 48.14-11.49-35.15-35.98-84.86-47.23-98.82-21.53-26.93-30.08-19.4-41.26-10.34-6.05 2.33-10.27-2.19-6.34-7.89 6.29-12.16 7.61-22.2.18-30.25-16.41 18.02-33.66 35.09-51.66 51.3ZM1569.36 1461.93c8.96 6.3 18.63 3.7 29.85-4.14 5.12-4.65 10.16-1.06 8.65 5.24-7.5 12.28-13.83 21.75 15.71 39.53 15.33 9.31 67.84 27.01 104.17 33.8-16.33-33.18-47.58-78.95-60.69-91.18-25.11-23.63-32.51-14.97-42.3-4.43-5.66 3.16-10.48-.72-7.39-6.91 4.51-12.92 4.4-23.05-4.09-29.98-13.71 20.15-28.37 39.48-43.91 58.07ZM1630.6 1376.57c9.72 5.06 18.95 1.2 29.03-8.07 4.46-5.29 9.93-2.39 9.27 4.05-5.8 13.17-10.82 23.39 20.82 37.09 16.43 7.19 70.83 17.77 107.73 19.67-20.58-30.71-57.64-71.92-72.25-82.31-28.03-20.09-34.21-10.53-42.52 1.23-5.19 3.88-10.48.67-8.24-5.87 2.76-13.41 1.3-23.43-8.03-29.17-10.91 21.79-22.88 42.9-35.81 63.38ZM1679.73 1284.34c10.3 3.73 18.95-1.32 27.71-11.83 3.73-5.83 9.53-3.69 9.73 2.79-4.01 13.82-7.64 24.61 25.54 34.01 17.23 4.96 72.55 8.26 109.38 5.27-24.46-27.73-66.63-63.68-82.49-72.05-30.44-16.2-35.3-5.91-41.99 6.84-4.62 4.53-10.3 2.05-8.94-4.73.96-13.66-1.8-23.4-11.81-27.85-7.94 23.04-17.02 45.54-27.13 67.55ZM1714.66 1191.7c10.68 2.41 18.62-3.68 26.01-15.21 2.96-6.25 8.99-4.85 10 1.55-2.26 14.22-4.5 25.38 29.59 30.56 17.72 2.76 73.01-.9 109.18-8.47-27.74-24.44-74.08-54.84-90.86-61.15-32.22-12.27-35.76-1.45-40.8 12.03-4.02 5.08-9.96 3.33-9.46-3.57-.76-13.67-4.72-22.99-15.21-26.16-4.99 23.86-11.18 47.32-18.45 70.42ZM1748.62 995.088c10.95-.351 17.11-8.24 21.37-21.251 1.3-6.79 7.49-6.948 10.07-1.009 1.38 14.329 2 25.7 36.3 22.16 17.85-1.76 70.46-19.171 103.58-35.564-32.99-16.712-85.47-34.519-103.29-36.423-34.27-3.8-34.99 7.562-36.48 21.879-2.63 5.923-8.81 5.719-10.06-1.085-4.16-13.044-10.33-21.075-21.28-21.508 1.15 24.342 1.04 48.61-.21 72.801ZM1738.2 1092.57c10.91 1.01 18-6.05 23.84-18.43 2.13-6.58 8.29-5.97 10.11.25-.4 14.38-1.19 25.74 33.29 26.48 17.92.46 72.28-10.28 107.18-22.45-30.66-20.67-80.53-44.85-97.98-48.94-33.54-8.02-35.66 3.16-38.91 17.18-3.34 5.56-9.45 4.59-9.85-2.32-2.51-13.46-7.64-22.19-18.45-23.98-1.87 24.3-4.99 48.36-9.23 72.21ZM1746.06 887.589c10.8-1.833 15.83-10.481 18.28-23.95.37-6.908 6.48-7.906 9.84-2.368 3.32 14.006 5.48 25.184 38.98 17.018 17.44-4.174 67.2-28.565 97.78-49.31-34.95-12.075-89.36-22.584-107.28-22.048-34.47.892-33.63 12.245-33.17 26.632-1.79 6.224-7.95 6.862-10.11.292-5.89-12.359-13.1-19.475-24-18.416 4.44 23.96 7.63 48.014 9.68 72.15ZM1728.66 780.365c10.45-3.298 14.25-12.556 14.82-26.234-.58-6.892 5.34-8.719 9.43-3.695 5.21 13.419 8.88 24.192 40.95 11.505 16.7-6.528 62.64-37.518 90.08-62.265-36.27-7.163-91.61-10.104-109.29-7.113-34.02 5.614-31.64 16.746-29.2 30.933-.92 6.412-6.93 7.889-9.98 1.677-7.53-11.432-15.64-17.492-26.3-14.946 7.69 23.122 14.15 46.512 19.49 70.138ZM1697.36 678.216c9.9-4.679 12.42-14.364 11.14-27.995-1.51-6.75 4.11-9.358 8.84-4.933 6.97 12.592 12.07 22.771 42.13 5.871 15.66-8.723 57-45.634 80.85-73.859-36.91-2.2-92.14 2.359-109.26 7.709-32.95 10.158-29.08 20.864-24.75 34.592-.05 6.478-5.8 8.754-9.66 3.01-9-10.311-17.86-15.22-28.08-11.259 10.75 21.873 20.3 44.176 28.79 66.864ZM1654.85 585.468c9.22-5.917 10.46-15.847 7.44-29.199-2.37-6.5 2.86-9.809 8.12-6.032 8.54 11.588 14.91 21.024 42.54.39 14.41-10.671 50.64-52.604 70.65-83.67-36.89 2.579-91.07 14.222-107.35 21.735-31.37 14.323-26.15 24.441-20.08 37.496.78 6.429-4.63 9.429-9.2 4.231-10.26-9.064-19.67-12.79-29.29-7.544 13.47 20.304 25.83 41.188 37.17 62.593ZM1602.89 502.001c8.42-7.017 8.42-17.024 3.76-29.896-3.16-6.156 1.62-10.09 7.31-6.996 9.91 10.438 17.41 19.008 42.25-4.901 12.97-12.379 43.71-58.489 59.71-91.801-36.28 7.144-88.6 25.43-103.82 34.909-29.34 18.109-22.9 27.501-15.26 39.701 1.58 6.282-3.42 9.931-8.6 5.34-11.31-7.718-21.11-10.244-30.01-3.844 15.9 18.472 30.75 37.659 44.66 57.488ZM1542.65 427.468c7.5-7.985 6.29-17.919.1-30.131-3.88-5.728.39-10.213 6.41-7.83 11.1 9.158 19.58 16.758 41.35-9.986 11.37-13.858 36.3-63.354 48.14-98.358-35.15 11.486-84.86 35.977-98.82 47.23-26.93 21.532-19.41 30.075-10.34 41.259 2.33 6.044-2.2 10.273-7.89 6.343-12.16-6.292-22.2-7.611-30.25-.18 18.01 16.41 35.08 33.654 51.3 51.653ZM1465.29 353.579c6.35-8.926 3.81-18.604-3.97-29.868-4.62-5.151-1-10.171 5.29-8.626 12.24 7.575 21.67 13.958 39.62-15.482 9.39-15.271 27.4-67.682 34.4-103.966-33.27 16.134-79.22 47.122-91.53 60.158-23.77 24.976-15.16 32.422-4.67 42.278 3.13 5.675-.78 10.475-6.95 7.351-12.9-4.591-23.03-4.539-30 3.912 20.07 13.824 39.31 28.603 57.81 44.243ZM1380.52 292c5.11-9.689 1.31-18.945-7.9-29.08-5.26-4.493-2.33-9.949 4.11-9.249 13.14 5.885 23.33 10.964 37.22-20.595 7.29-16.379 18.19-70.713 20.33-107.604-30.84 20.397-72.28 57.196-82.75 71.748-20.26 27.903-10.74 34.145.96 42.525 3.85 5.21.61 10.486-5.92 8.207-13.39-2.841-23.42-1.451-29.21 7.849 21.72 11.046 42.75 23.146 63.16 36.199ZM1283.44 239.969c3.72-10.305-1.33-18.942-11.86-27.697-5.83-3.717-3.7-9.528 2.78-9.732 13.83 4.001 24.62 7.613 33.99-25.573 4.94-17.235 8.18-72.558 5.15-109.386-27.7 24.491-63.61 66.698-71.96 82.566-16.17 30.452-5.88 35.308 6.88 41.977 4.54 4.624 2.06 10.299-4.72 8.951-13.66-.951-23.4 1.824-27.84 11.84 23.05 7.913 45.56 16.968 67.58 27.054ZM1194.59 206.321c2.45-10.677-3.61-18.644-15.11-26.07-6.23-2.991-4.81-9.015 1.59-9.996 14.21 2.31 25.36 4.6 30.67-29.471 2.84-17.704-.59-73.015-8.02-109.213-24.56 27.641-55.14 73.857-61.52 90.613-12.4 32.173-1.59 35.757 11.87 40.847 5.06 4.044 3.29 9.976-3.61 9.453-13.67.696-23.01 4.621-26.22 15.097 23.84 5.088 47.27 11.374 70.35 18.74ZM1098.94 182.979c1.11-10.9-5.89-18.051-18.23-23.99-6.56-2.19-5.9-8.345.33-10.114 14.39.524 25.74 1.406 26.77-33.06.61-17.919-9.68-72.372-21.56-107.364-20.92 30.481-45.51 80.145-49.76 97.564-8.3 33.468 2.87 35.678 16.86 39.052 5.53 3.384 4.51 9.489-2.4 9.829-13.48 2.393-22.26 7.449-24.14 18.244 24.28 2.081 48.32 5.4 72.13 9.839ZM995.08 171.428c-.34-10.949-8.231-17.113-21.24-21.371-6.791-1.304-6.951-7.492-1-10.069 14.32-1.381 25.689-2.005 22.16-36.307C993.24 85.84 975.84 33.223 959.449.105c-16.716 32.98-34.532 85.456-36.438 103.283-3.807 34.271 7.554 34.987 21.872 36.483 5.917 2.625 5.717 8.812-1.088 10.061-13.044 4.152-21.075 10.324-21.511 21.271 24.343-1.143 48.605-1.028 72.796.225ZM871.001 175.673c-2.058-10.76-10.81-15.612-24.328-17.776-6.914-.222-8.038-6.31-2.573-9.788 13.935-3.609 25.064-6.008 16.199-39.332-4.539-17.345-29.967-66.584-51.348-96.722-11.34 35.193-20.708 89.813-19.796 107.718 1.613 34.444 12.946 33.371 27.321 32.603 6.26 1.664 7.027 7.807.503 10.107-12.232 6.146-19.196 13.501-17.91 24.381 23.862-4.945 47.844-8.636 71.932-11.191ZM761.764 195.928c-3.549-10.364-12.896-13.94-26.584-14.185-6.876.75-8.844-5.119-3.92-9.33 13.288-5.529 23.971-9.468 10.515-41.216-6.928-16.536-39.016-61.718-64.416-88.556-6.288 36.436-7.895 91.83-4.479 109.431 6.432 33.876 17.503 31.221 31.627 28.444 6.432.768 8.054 6.743 1.917 9.936-11.248 7.803-17.111 16.063-14.309 26.653 22.932-8.246 46.158-15.266 69.649-21.177ZM667.168 226.947c-4.825-9.836-14.548-12.207-28.157-10.727-6.728 1.609-9.419-3.967-5.064-8.763 12.486-7.158 22.589-12.409 5.245-42.212-8.955-15.532-46.475-56.317-75.051-79.745-1.652 36.939 3.726 92.095 9.33 109.125 10.645 32.798 21.293 28.771 34.956 24.238 6.477-.047 8.838 5.676 3.152 9.616-10.176 9.156-14.954 18.088-10.842 28.242 21.712-11.068 43.87-20.954 66.431-29.774ZM574.219 271.3c-6.066-9.124-16.014-10.209-29.315-6.971-6.461 2.472-9.855-2.705-6.161-8.028 11.449-8.722 20.781-15.244-.295-42.536-10.9-14.234-53.409-49.786-84.792-69.296 3.171 36.839 15.681 90.826 23.455 106.982 14.824 31.133 24.858 25.753 37.814 19.48 6.416-.89 9.502 4.477 4.378 9.125-8.899 10.403-12.472 19.88-7.074 29.413 20.087-13.8 40.77-26.488 61.99-38.169ZM483.757 330.437c-7.253-8.209-17.256-7.925-29.99-2.901-6.063 3.332-10.132-1.335-7.2-7.111 10.15-10.205 18.504-17.94-6.102-42.097-12.742-12.612-59.709-42.027-93.462-57.065 8.172 36.06 27.94 87.832 37.846 102.774 18.938 28.816 28.143 22.118 40.12 14.134 6.235-1.758 10.026 3.137 5.583 8.441-7.393 11.521-9.639 21.397-2.989 30.104 18.013-16.413 36.769-31.808 56.194-46.279ZM402.905 400.695c-8.298-7.152-18.17-5.516-30.108 1.186-5.556 4.12-10.22.05-8.097-6.072 8.676-11.485 15.907-20.278-11.743-40.882-14.333-10.772-64.849-33.558-100.328-43.89 12.979 34.623 39.574 83.242 51.412 96.707 22.664 25.987 30.878 18.104 41.664 8.572 5.939-2.585 10.358 1.751 6.674 7.607-5.766 12.416-6.655 22.505 1.113 30.232 15.625-18.702 32.125-36.492 49.413-53.46ZM332.809 480.595c-9.184-5.974-18.748-3.027-29.676 5.218-4.952 4.831-10.12 1.422-8.838-4.928 7.054-12.546 13.037-22.232-17.13-38.934-15.649-8.75-68.769-24.542-105.313-30.015 17.512 32.565 50.396 77.171 63.936 88.924 25.949 22.707 33.029 13.792 42.437 2.897 5.539-3.36 10.499.344 7.636 6.642-4.046 13.078-3.57 23.196 5.164 29.808 12.972-20.631 26.932-40.478 41.784-59.612ZM278.213 562.024c-9.854-4.788-18.978-.679-28.8 8.859-4.316 5.405-9.866 2.664-9.382-3.796 5.445-13.324 10.182-23.676-21.823-36.512-16.613-6.742-71.28-15.828-108.221-16.728 21.413 30.142 59.572 70.329 74.465 80.312 28.563 19.316 34.484 9.592 42.469-2.384 5.079-4.02 10.46-.96 8.4 5.644-2.394 13.478-.668 23.458 8.819 28.937 10.315-22.079 21.707-43.503 34.073-64.332ZM233.481 651.115c-10.378-3.508-18.912 1.718-27.453 12.416-3.6 5.908-9.452 3.888-9.785-2.583 3.722-13.904 7.116-24.771-26.251-33.469-17.331-4.595-72.707-6.719-109.467-2.958 25.042 27.204 67.96 62.262 83.994 70.288 30.769 15.563 35.417 5.17 41.829-7.718 4.532-4.628 10.256-2.27 9.044 4.541-.676 13.673 2.293 23.356 12.396 27.596 7.449-23.203 16.052-45.892 25.693-68.113ZM201.356 741.555c-10.727-2.223-18.564 4.001-25.744 15.656-2.856 6.301-8.909 5.005-10.027-1.376 2.008-14.254 4.059-25.451-30.117-30.038-17.76-2.456-72.985 2.154-109.017 10.35 28.157 23.964 75.014 53.553 91.901 59.576 32.432 11.713 35.784.833 40.585-12.738 3.936-5.144 9.904-3.498 9.528 3.41.988 13.653 5.111 22.905 15.654 25.888 4.578-23.936 10.362-47.5 17.237-70.728ZM180.487 834.953c-10.918-.909-17.943 6.218-23.66 18.656-2.074 6.6-8.239 6.047-10.12-.153.268-14.391.949-25.755-33.531-26.172-17.927-.289-72.188 10.969-106.964 23.464 30.85 20.381 80.943 44.084 98.436 48.017 33.609 7.704 35.621-3.502 38.744-17.553 3.285-5.583 9.409-4.672 9.872 2.231 2.632 13.434 7.844 22.118 18.669 23.804 1.65-24.314 4.54-48.406 8.554-72.294ZM171.295 924.821c-10.951.344-17.116 8.227-21.375 21.236-1.305 6.795-7.495 6.95-10.071 1.006-1.377-14.328-2-25.696-36.301-22.171-17.843 1.76-70.463 19.144-103.584 35.531 32.977 16.725 85.45 34.544 103.277 36.454 34.271 3.823 34.988-7.549 36.486-21.86 2.626-5.924 8.813-5.718 10.061 1.091 4.151 13.04 10.321 21.069 21.268 21.509-1.14-24.34-1.02-48.606.239-72.796ZM173.792 1032.05c-10.803 1.82-15.843 10.47-18.299 23.93-.373 6.91-6.484 7.9-9.841 2.36-3.307-14.01-5.465-25.18-38.972-17.04-17.439 4.16-67.217 28.52-97.81 49.24 34.938 12.1 89.342 22.65 107.265 22.12 34.47-.86 33.641-12.22 33.185-26.61 1.799-6.22 7.957-6.85 10.116-.28 5.88 12.36 13.081 19.48 23.987 18.43-4.428-23.96-7.599-48.02-9.631-72.15ZM189.097 1130.41c-10.485 3.17-14.398 12.38-15.14 26.05.5 6.9-5.437 8.66-9.466 3.58-5.043-13.48-8.591-24.29-40.807-12-16.776 6.32-63.093 36.75-90.836 61.16 36.184 7.61 91.484 11.22 109.197 8.45 34.087-5.2 31.836-16.36 29.572-30.58 1.003-6.4 7.031-7.8 10-1.55 7.39 11.52 15.431 17.68 26.116 15.27-7.408-23.22-13.581-46.69-18.636-70.38ZM222.151 1240.94c-9.914 4.66-12.442 14.34-11.183 27.98 1.5 6.75-4.119 9.35-8.844 4.92-6.953-12.6-12.04-22.79-42.12-5.93-15.676 8.7-57.064 45.55-80.953 73.74 36.906 2.26 92.142-2.23 109.262-7.55 32.966-10.11 29.112-20.83 24.8-34.56.059-6.48 5.819-8.75 9.667-3 8.991 10.33 17.843 15.25 28.063 11.3-10.714-21.89-20.24-44.2-28.692-66.9ZM259.764 1324.73c-9.304 5.79-10.689 15.7-7.856 29.09 2.273 6.53-3.004 9.77-8.212 5.92-8.372-11.71-14.607-21.24-42.525-1-14.559 10.46-51.387 51.87-71.839 82.65 36.917-2.05 91.259-12.92 107.644-20.2 31.568-13.87 26.497-24.06 20.62-37.2-.695-6.44 4.763-9.36 9.252-4.1 10.129 9.21 19.493 13.07 29.185 7.96-13.182-20.49-25.237-41.55-36.269-63.12ZM310.829 1409.39c-8.506 6.9-8.644 16.91-4.158 29.84 3.073 6.2-1.76 10.07-7.408 6.9-9.77-10.58-17.146-19.25-42.316 4.32-13.138 12.2-44.5 57.89-60.947 90.98 36.372-6.65 88.931-24.22 104.277-33.49 29.587-17.71 23.28-27.19 15.807-39.49-1.493-6.3 3.556-9.89 8.668-5.22 11.2 7.87 20.973 10.53 29.952 4.25-15.641-18.69-30.233-38.08-43.875-58.09ZM377.347 1492.82c-7.499 7.98-6.286 17.92-.098 30.13 3.882 5.73-.385 10.21-6.41 7.83-11.106-9.16-19.584-16.76-41.346 9.99-11.372 13.86-36.288 63.36-48.121 98.37 35.144-11.49 84.851-35.99 98.808-47.25 26.928-21.54 19.401-30.08 10.337-41.26-2.329-6.04 2.191-10.27 7.886-6.34 12.158 6.29 22.201 7.6 30.25.17-18.018-16.41-35.09-33.65-51.306-51.64ZM454.931 1566.87c-6.348 8.93-3.799 18.6 3.988 29.86 4.62 5.15 1.001 10.18-5.291 8.63-12.244-7.56-21.675-13.94-39.611 15.51-9.388 15.27-27.364 67.69-34.342 103.98 33.261-16.15 79.189-47.16 91.49-60.2 23.762-24.99 15.147-32.44 4.651-42.29-3.128-5.67.777-10.47 6.952-7.35 12.9 4.58 23.028 4.53 29.996-3.93-20.076-13.81-39.329-28.58-57.833-44.21ZM541.251 1629.36c-5.087 9.7-1.259 18.94 7.973 29.05 5.272 4.48 2.363 9.95-4.08 9.26-13.151-5.84-23.355-10.9-37.16 20.7-7.247 16.4-17.999 70.77-20.027 107.66 30.783-20.48 72.116-57.4 82.55-71.98 20.178-27.96 10.64-34.17-1.087-42.52-3.863-5.2-.64-10.48 5.899-8.22 13.398 2.8 23.426 1.38 29.193-7.93-21.753-10.99-42.82-23.03-63.261-36.02ZM635.577 1679.82c-3.729 10.3 1.315 18.94 11.828 27.71 5.83 3.72 3.686 9.53-2.789 9.73-13.823-4.02-24.615-7.64-34.021 25.53-4.963 17.23-8.267 72.55-5.288 109.38 27.732-24.46 63.694-66.62 72.061-82.48 16.213-30.43 5.921-35.3-6.827-41.98-4.53-4.63-2.05-10.3 4.732-8.95 13.656.97 23.4-1.79 27.854-11.8-23.039-7.95-45.539-17.03-67.55-27.14ZM724.523 1713.62c-2.462 10.67 3.585 18.64 15.077 26.08 6.236 3 4.805 9.02-1.6 10-14.204-2.33-25.355-4.63-30.703 29.44-2.852 17.7.524 73.01 7.912 109.22 24.587-27.62 55.216-73.8 61.614-90.55 12.434-32.16 1.632-35.76-11.827-40.86-5.055-4.05-3.276-9.98 3.621-9.45 13.672-.68 23.014-4.6 26.231-15.07-23.827-5.11-47.257-11.42-70.325-18.81Z"/></g><text xml:space="preserve" font-family="Basic Sans SF" font-size="92" font-weight="400" transform="rotate(-73.531 749.45 156.312)">G</text><text xml:space="preserve" font-family="Basic Sans SF" font-size="92" font-weight="400" transform="rotate(-66.983 781.851 75.627)">R</text><text xml:space="preserve" font-family="Basic Sans SF" font-size="92" font-weight="400" transform="rotate(-61.229 815.556 -7.715)">E</text><text xml:space="preserve" font-family="Basic Sans SF" font-size="92" font-weight="400" transform="rotate(-56.042 851.006 -96.69)">A</text><text xml:space="preserve" font-family="Basic Sans SF" font-size="92" font-weight="400" transform="rotate(-51.909 883.393 -180.494)">T</text><text xml:space="preserve" font-family="Basic Sans SF" font-size="92" font-weight="400" transform="rotate(-44.222 962.648 -366.568)">S</text><text xml:space="preserve" font-family="Basic Sans SF" font-size="92" font-weight="400" transform="rotate(-38.742 1037.002 -541.32)">E</text><text xml:space="preserve" font-family="Basic Sans SF" font-size="92" font-weight="400" transform="rotate(-33.617 1125.281 -760.571)">A</text><text xml:space="preserve" font-family="Basic Sans SF" font-size="92" font-weight="400" transform="rotate(-28.262 1251.892 -1068.562)">L</text><text xml:space="preserve" font-family="Basic Sans SF" font-size="92" font-weight="400" transform="rotate(-20.374 1562.03 -1783.515)">O</text><text xml:space="preserve" font-family="Basic Sans SF" font-size="92" font-weight="400" transform="rotate(-14.171 2035.925 -2944.753)">F</text><text xml:space="preserve" font-family="Basic Sans SF" font-size="92" font-weight="400" transform="rotate(-7.171 3555.672 -6621.212)">T</text><text xml:space="preserve" font-family="Basic Sans SF" font-size="92" font-weight="400" transform="rotate(-1.725 13264.841 -29805.31)">H</text><text xml:space="preserve" font-family="Basic Sans SF" font-size="92" font-weight="400" transform="rotate(4.062 -4931.063 13800.052)">E</text><text xml:space="preserve" font-family="Basic Sans SF" font-size="92" font-weight="400" transform="rotate(12.543 -1256.84 4954.664)">N</text><text xml:space="preserve" font-family="Basic Sans SF" font-size="92" font-weight="400" transform="rotate(18.421 -695.465 3620.937)">A</text><text xml:space="preserve" font-family="Basic Sans SF" font-size="92" font-weight="400" transform="rotate(23.034 -454.677 3044.73)">V</text><text xml:space="preserve" font-family="Basic Sans SF" font-size="92" font-weight="400" transform="rotate(27.716 -288.914 2642.234)">A</text><text xml:space="preserve" font-family="Basic Sans SF" font-size="92" font-weight="400" transform="rotate(32.451 -173.95 2369.665)">J</text><text xml:space="preserve" font-family="Basic Sans SF" font-size="92" font-weight="400" transform="rotate(38.241 -61.193 2093.405)">O</text><text xml:space="preserve" font-family="Basic Sans SF" font-size="92" font-weight="400" transform="rotate(47.333 53.049 1820.78)">N</text><text xml:space="preserve" font-family="Basic Sans SF" font-size="92" font-weight="400" transform="rotate(53.288 106.578 1691.998)">A</text><text xml:space="preserve" font-family="Basic Sans SF" font-size="92" font-weight="400" transform="rotate(57.27 135.565 1621.216)">T</text><text xml:space="preserve" font-family="Basic Sans SF" font-size="92" font-weight="400" transform="rotate(60.699 152.218 1576.038)">I</text><text xml:space="preserve" font-family="Basic Sans SF" font-size="92" font-weight="400" transform="rotate(65.067 191.319 1490.98)">O</text><text xml:space="preserve" font-family="Basic Sans SF" font-size="92" font-weight="400" transform="rotate(71.769 226.678 1406.258)">N</text></svg>