{
    "asset" : {
        "generator" : "Khronos glTF Blender I/O v1.5.17",
        "version" : "2.0"
    },
    "scene" : 0,
    "scenes" : [
        {
            "name" : "Scene",
            "nodes" : [
                0
            ]
        }
    ],
    "nodes" : [
        {
            "mesh" : 0,
            "name" : "node-0"
        }
    ],
    "materials" : [
        {
            "doubleSided" : true,
            "name" : "wood",
            "pbrMetallicRoughness" : {
                "baseColorFactor" : [
                    0.5106149911880493,
                    0.1635729968547821,
                    0.031348999589681625,
                    1
                ],
                "metallicFactor" : 0,
                "roughnessFactor" : 0.7448017597198486
            }
        },
        {
            "doubleSided" : true,
            "name" : "leaf",
            "pbrMetallicRoughness" : {
                "baseColorFactor" : [
                    0.010809999890625477,
                    0.2529419958591461,
                    0.01023900043219328,
                    1
                ],
                "metallicFactor" : 0,
                "roughnessFactor" : 0.7448017597198486
            }
        },
        {
            "doubleSided" : true,
            "name" : "white",
            "pbrMetallicRoughness" : {
                "baseColorFactor" : [
                    0.800000011920929,
                    0.4564119875431061,
                    0.15836599469184875,
                    1
                ],
                "metallicFactor" : 0,
                "roughnessFactor" : 0.7448017597198486
            }
        },
        {
            "doubleSided" : true,
            "name" : "Besi",
            "pbrMetallicRoughness" : {
                "baseColorFactor" : [
                    0.19695399701595306,
                    0.19695399701595306,
                    0.19695399701595306,
                    1
                ],
                "metallicFactor" : 0,
                "roughnessFactor" : 0.7448017597198486
            }
        },
        {
            "doubleSided" : true,
            "name" : "Batu",
            "pbrMetallicRoughness" : {
                "baseColorFactor" : [
                    0.3931120038032532,
                    0.3931120038032532,
                    0.3931120038032532,
                    1
                ],
                "metallicFactor" : 0,
                "roughnessFactor" : 0.7448017597198486
            }
        }
    ],
    "meshes" : [
        {
            "name" : "buffer-0-mesh-0",
            "primitives" : [
                {
                    "attributes" : {
                        "POSITION" : 0,
                        "NORMAL" : 1
                    },
                    "indices" : 2,
                    "material" : 0
                },
                {
                    "attributes" : {
                        "POSITION" : 3,
                        "NORMAL" : 4
                    },
                    "indices" : 5,
                    "material" : 1
                },
                {
                    "attributes" : {
                        "POSITION" : 6,
                        "NORMAL" : 7
                    },
                    "indices" : 8,
                    "material" : 2
                },
                {
                    "attributes" : {
                        "POSITION" : 9,
                        "NORMAL" : 10
                    },
                    "indices" : 11,
                    "material" : 3
                },
                {
                    "attributes" : {
                        "POSITION" : 12,
                        "NORMAL" : 13
                    },
                    "indices" : 14,
                    "material" : 4
                }
            ]
        }
    ],
    "accessors" : [
        {
            "bufferView" : 0,
            "componentType" : 5126,
            "count" : 635,
            "max" : [
                2.2711730003356934,
                3.81472110748291,
                2.3961269855499268
            ],
            "min" : [
                -2.684670925140381,
                -0.03842800110578537,
                -2.132659912109375
            ],
            "type" : "VEC3"
        },
        {
            "bufferView" : 1,
            "componentType" : 5126,
            "count" : 635,
            "type" : "VEC3"
        },
        {
            "bufferView" : 2,
            "componentType" : 5123,
            "count" : 2535,
            "type" : "SCALAR"
        },
        {
            "bufferView" : 3,
            "componentType" : 5126,
            "count" : 114,
            "max" : [
                2.3051400184631348,
                0.4777370095252991,
                0.22869400680065155
            ],
            "min" : [
                -2.593080997467041,
                -0.0760980024933815,
                -0.15650300681591034
            ],
            "type" : "VEC3"
        },
        {
            "bufferView" : 4,
            "componentType" : 5126,
            "count" : 114,
            "type" : "VEC3"
        },
        {
            "bufferView" : 5,
            "componentType" : 5123,
            "count" : 150,
            "type" : "SCALAR"
        },
        {
            "bufferView" : 6,
            "componentType" : 5126,
            "count" : 428,
            "max" : [
                1.386646032333374,
                3.81472110748291,
                2.3961269855499268
            ],
            "min" : [
                -1.665855050086975,
                0.01860100030899048,
                -0.9998379945755005
            ],
            "type" : "VEC3"
        },
        {
            "bufferView" : 7,
            "componentType" : 5126,
            "count" : 428,
            "type" : "VEC3"
        },
        {
            "bufferView" : 8,
            "componentType" : 5123,
            "count" : 1401,
            "type" : "SCALAR"
        },
        {
            "bufferView" : 9,
            "componentType" : 5126,
            "count" : 112,
            "max" : [
                0.9932500123977661,
                0.6936789751052856,
                2.0624659061431885
            ],
            "min" : [
                -0.5078920125961304,
                0.12370099872350693,
                1.1706819534301758
            ],
            "type" : "VEC3"
        },
        {
            "bufferView" : 10,
            "componentType" : 5126,
            "count" : 112,
            "type" : "VEC3"
        },
        {
            "bufferView" : 11,
            "componentType" : 5123,
            "count" : 576,
            "type" : "SCALAR"
        },
        {
            "bufferView" : 12,
            "componentType" : 5126,
            "count" : 285,
            "max" : [
                0.09055200219154358,
                0.0504239983856678,
                2.3044159412384033
            ],
            "min" : [
                -1.0151150226593018,
                -0.0368570014834404,
                1.247596025466919
            ],
            "type" : "VEC3"
        },
        {
            "bufferView" : 13,
            "componentType" : 5126,
            "count" : 285,
            "type" : "VEC3"
        },
        {
            "bufferView" : 14,
            "componentType" : 5123,
            "count" : 1581,
            "type" : "SCALAR"
        }
    ],
    "bufferViews" : [
        {
            "buffer" : 0,
            "byteLength" : 7620,
            "byteOffset" : 0
        },
        {
            "buffer" : 0,
            "byteLength" : 7620,
            "byteOffset" : 7620
        },
        {
            "buffer" : 0,
            "byteLength" : 5070,
            "byteOffset" : 15240
        },
        {
            "buffer" : 0,
            "byteLength" : 1368,
            "byteOffset" : 20312
        },
        {
            "buffer" : 0,
            "byteLength" : 1368,
            "byteOffset" : 21680
        },
        {
            "buffer" : 0,
            "byteLength" : 300,
            "byteOffset" : 23048
        },
        {
            "buffer" : 0,
            "byteLength" : 5136,
            "byteOffset" : 23348
        },
        {
            "buffer" : 0,
            "byteLength" : 5136,
            "byteOffset" : 28484
        },
        {
            "buffer" : 0,
            "byteLength" : 2802,
            "byteOffset" : 33620
        },
        {
            "buffer" : 0,
            "byteLength" : 1344,
            "byteOffset" : 36424
        },
        {
            "buffer" : 0,
            "byteLength" : 1344,
            "byteOffset" : 37768
        },
        {
            "buffer" : 0,
            "byteLength" : 1152,
            "byteOffset" : 39112
        },
        {
            "buffer" : 0,
            "byteLength" : 3420,
            "byteOffset" : 40264
        },
        {
            "buffer" : 0,
            "byteLength" : 3420,
            "byteOffset" : 43684
        },
        {
            "buffer" : 0,
            "byteLength" : 3162,
            "byteOffset" : 47104
        }
    ],
    "buffers" : [
        {
            "byteLength" : 50268,
            "uri" : "data:application/octet-stream;base64,"
        }
    ]
}
